# xmcd CD database file
#
# Track frame offsets:
#	150
#	51075
#	94800
#	117375
#	139875
#	168450
#	205425
#	225600
#	271650
#
# Disc length: 4205 seconds
#
# Revision: 1
# Processed by: cddbd v1.5.2PL0 Copyright (c) Steve Scherf et al.
# Submitted via: CDex 1.51
#
DISCID=7e106b09
DTITLE=Rusty Zinn and The Roadmasters - Live featuring Kim Wilson
DYEAR=1996
DGENRE=Blues
TTITLE0=Don't Bite The Hand That Feeds You
TTITLE1=Rock With Me Tonight
TTITLE2=I Can Tell
TTITLE3=I'm Trying
TTITLE4=How Long
TTITLE5=I Ain't Gonna Do It
TTITLE6=Tigerman
TTITLE7=Date Bait - Why I Sing The Blues
TTITLE8=High and Lonesome - T-BoneShuffle
EXTD=YEAR: 1996
EXTT0=
EXTT1=
EXTT2=
EXTT3=
EXTT4=
EXTT5=
EXTT6=
EXTT7=
EXTT8=
PLAYORDER=
